<?xml version="1.0" standalone="no"?>
<!DOCTYPE svg PUBLIC "-//W3C//DTD SVG 20010904//EN"
 "http://www.w3.org/TR/2001/REC-SVG-20010904/DTD/svg10.dtd">
<svg version="1.0" xmlns="http://www.w3.org/2000/svg"
 width="580.000000pt" height="386.000000pt" viewBox="0 0 580.000000 386.000000"
 preserveAspectRatio="xMidYMid meet">
<metadata>
Created by potrace 1.16, written by Peter Selinger 2001-2019
</metadata>
<g transform="translate(0.000000,386.000000) scale(0.100000,-0.100000)"
fill="#000000" stroke="none">
<path d="M2255 2218 c-175 -304 -384 -665 -463 -803 -79 -137 -153 -265 -164
-282 l-20 -33 140 0 140 0 80 143 c44 78 125 221 181 317 56 96 174 302 264
457 89 156 165 283 168 283 9 0 184 -311 181 -322 -1 -5 -110 -194 -241 -421
-131 -227 -243 -422 -250 -434 l-12 -23 135 0 134 0 40 68 c52 90 451 777 565
975 50 86 93 157 96 157 9 0 166 -282 164 -291 -2 -7 -63 -112 -376 -654
l-144 -250 334 -3 c184 -1 482 -1 663 0 l328 3 -151 262 -152 263 -187 0 -186
0 -66 -113 c-36 -63 -66 -116 -66 -120 0 -3 10 -6 23 -5 12 0 95 0 183 -1 161
-1 162 -1 178 -26 l16 -25 -254 0 -255 0 71 123 c40 67 96 164 126 216 l55 94
18 -24 c10 -13 21 -32 25 -41 5 -16 21 -18 144 -18 l139 0 -137 238 c-389 674
-487 842 -493 842 -4 0 -73 -115 -154 -255 -81 -140 -153 -262 -160 -272 -14
-18 -1 -37 -211 327 -62 107 -116 196 -121 197 -4 2 -152 -246 -328 -549z"/>
</g>
</svg>
